<svg xmlns="http://www.w3.org/2000/svg" viewBox="0 0 300 200" width="300" height="200">
  <defs>
    <linearGradient id="g3" x1="0%" y1="0%" x2="100%" y2="100%">
      <stop offset="0%" style="stop-color:#9B4F63"/>
      <stop offset="100%" style="stop-color:#6B2840"/>
    </linearGradient>
  </defs>
  <rect width="300" height="200" fill="#F5F0EC"/>
  <!-- Infinity thick fill version -->
  <path d="M150,100 C150,65 122,32 95,32 C58,32 28,62 28,100 C28,138 58,168 95,168 C122,168 150,135 150,100 C150,65 178,32 205,32 C242,32 272,62 272,100 C272,138 242,168 205,168 C178,168 150,135 150,100 Z" fill="none" stroke="url(#g3)" stroke-width="3"/>
  <!-- Subtle inner shadow lines -->
  <path d="M150,100 C150,72 128,48 110,48 C84,48 62,70 62,100 C62,130 84,152 110,152 C128,152 150,128 150,100 C150,72 172,48 190,48 C216,48 238,70 238,100 C238,130 216,152 190,152 C172,152 150,128 150,100 Z" fill="none" stroke="#9B4F63" stroke-width="1" opacity="0.4"/>
  <!-- K serif dark -->
  <text x="95" y="118" font-family="Georgia, serif" font-size="60" font-weight="400" fill="#1A1A1A" text-anchor="middle">K</text>
  <!-- V rose -->
  <text x="205" y="118" font-family="Georgia, serif" font-size="60" font-weight="400" fill="url(#g3)" text-anchor="middle">V</text>
  <!-- Tagline -->
  <text x="150" y="188" font-family="'Helvetica Neue', Arial, sans-serif" font-size="8" font-weight="300" fill="#9B4F63" text-anchor="middle" letter-spacing="6">KIMBERLY VANESSA</text>
</svg>
