<svg xmlns="http://www.w3.org/2000/svg" viewBox="0 0 200 200" width="200" height="200">
  <defs>
    <linearGradient id="g21" x1="0%" y1="0%" x2="100%" y2="100%">
      <stop offset="0%" style="stop-color:#F2C4CE"/>
      <stop offset="100%" style="stop-color:#8B3550"/>
    </linearGradient>
  </defs>
  <rect width="200" height="200" fill="#0A0A0A"/>
  <!-- 12-point star/stamp shape -->
  <polygon points="100,10 111,38 140,22 132,51 162,50 148,75 178,85 157,104 178,123 148,125 162,150 132,149 140,178 111,162 100,190 89,162 60,178 68,149 38,150 52,125 22,123 43,104 22,85 52,75 38,50 68,51 60,22 89,38" fill="none" stroke="url(#g21)" stroke-width="1.5"/>
  <!-- Inner circle -->
  <circle cx="100" cy="100" r="58" fill="#150810" stroke="#8B3550" stroke-width="1"/>
  <!-- KV -->
  <text x="100" y="118" font-family="Georgia, serif" font-size="58" font-weight="400" fill="url(#g21)" text-anchor="middle" letter-spacing="-4">KV</text>
</svg>
