<svg xmlns="http://www.w3.org/2000/svg" viewBox="0 0 300 160" width="300" height="160">
  <defs>
    <linearGradient id="g2" x1="0%" y1="0%" x2="100%" y2="100%">
      <stop offset="0%" style="stop-color:#F5D67B"/>
      <stop offset="100%" style="stop-color:#C9A84C"/>
    </linearGradient>
  </defs>
  <rect width="300" height="160" fill="#111"/>
  <!-- Infinity using bezier path — clean figure-8 -->
  <path d="M150,80 C150,45 120,18 90,18 C55,18 28,45 28,80 C28,115 55,142 90,142 C120,142 150,115 150,80 C150,45 180,18 210,18 C245,18 272,45 272,80 C272,115 245,142 210,142 C180,142 150,115 150,80 Z" fill="none" stroke="url(#g2)" stroke-width="2.5"/>
  <!-- Inner thin infinity -->
  <path d="M150,80 C150,55 128,35 110,35 C82,35 62,55 62,80 C62,105 82,125 110,125 C128,125 150,105 150,80 C150,55 172,35 190,35 C218,35 238,55 238,80 C238,105 218,125 190,125 C172,125 150,105 150,80 Z" fill="none" stroke="#C9A84C" stroke-width="0.8" stroke-dasharray="4 3"/>
  <!-- K -->
  <text x="90" y="98" font-family="Georgia, serif" font-size="55" font-weight="400" fill="url(#g2)" text-anchor="middle">K</text>
  <!-- V -->
  <text x="210" y="98" font-family="Georgia, serif" font-size="55" font-weight="400" fill="url(#g2)" text-anchor="middle">V</text>
</svg>
