<svg xmlns="http://www.w3.org/2000/svg" viewBox="0 0 300 200" width="300" height="200">
  <defs>
    <linearGradient id="g5" x1="0%" y1="0%" x2="100%" y2="0%">
      <stop offset="0%" style="stop-color:#D4A0B5"/>
      <stop offset="50%" style="stop-color:#9B4F63"/>
      <stop offset="100%" style="stop-color:#D4A0B5"/>
    </linearGradient>
  </defs>
  <rect width="300" height="200" fill="#FAFAFA"/>
  <!-- Ultra minimal — just the outline, very thin -->
  <path d="M150,100 C150,68 124,38 98,38 C64,38 36,66 36,100 C36,134 64,162 98,162 C124,162 150,132 150,100 C150,68 176,38 202,38 C236,38 264,66 264,100 C264,134 236,162 202,162 C176,162 150,132 150,100 Z" fill="none" stroke="url(#g5)" stroke-width="1.5"/>
  <!-- Large elegant K -->
  <text x="98" y="122" font-family="Georgia, 'Times New Roman', serif" font-size="72" font-weight="300" fill="#1A1A1A" text-anchor="middle">K</text>
  <!-- Large elegant V in rose -->
  <text x="202" y="122" font-family="Georgia, 'Times New Roman', serif" font-size="72" font-weight="300" fill="#9B4F63" text-anchor="middle">V</text>
  <!-- Center dot at crossing point -->
  <circle cx="150" cy="100" r="4" fill="#9B4F63"/>
  <!-- Tagline below -->
  <text x="150" y="186" font-family="'Helvetica Neue', Arial, sans-serif" font-size="8" font-weight="300" fill="#9B4F63" text-anchor="middle" letter-spacing="7">KIMBERLY VANESSA</text>
  <line x1="80" y1="175" x2="220" y2="175" stroke="#D4A0B5" stroke-width="0.8"/>
</svg>
